<svg fill="none" height="250" viewBox="0 0 400 400" width="250" xmlns="http://www.w3.org/2000/svg">
  <path
    d="M82.7032 219.985C93.444 223.688 106.777 217.022 109.37 204.059C112.322 189.725 104.118 175.64 93.3254 166.792C78.3958 154.551 49.5588 148.933 48.3588 176.122C47.3217 199.603 62.0477 212.866 82.6995 219.988L82.7032 219.985Z"
    fill="#3EC8AC"
    opacity="0.4"/>
  <path
    d="M69.2906 137.782C71.1943 142.648 77.5054 145.33 82.8203 142.374C88.7203 139.133 91.2092 132.063 91.0906 125.645C90.9277 116.763 84.298 104.989 74.4166 112.674C65.8832 119.311 65.6277 128.426 69.2906 137.782Z"
    fill="#3EC8AC"
    opacity="0.4"/>
  <path
    d="M319.347 195.728C317.68 200.668 320.68 206.802 326.517 207.994C332.969 209.354 339.31 205.58 343.295 200.617C348.806 193.75 351.336 180.487 339.099 179.931C328.528 179.454 322.554 186.228 319.351 195.728H319.347Z"
    fill="#3EC8AC"
    opacity="0.4"/>
  <path
    d="M262.923 68.1888H164.971C131.782 68.1888 102.978 92.237 97.0781 125.604C96.993 126.078 96.9152 126.555 96.8374 127.037C93.2115 150.37 106.623 168.889 118.949 188.518C127.649 202.593 116.049 217.778 103.723 225.185C92.4855 231.111 79.0744 230.741 70.7374 240.741C61.4522 252.052 58.1485 265.252 57.1411 279.011C55.5337 301.026 67.2115 321.878 86.7263 331.355C100.137 337.87 115.145 341.515 130.982 341.515H262.919C319.948 341.515 366.178 294.278 366.178 236.007V173.696C366.178 115.426 319.948 68.1888 262.919 68.1888H262.923Z"
    fill="#3EC8AC"
    opacity="0.4"/>
  <path
    d="M292.937 241.853C273.726 243.705 255.6 235.557 238.926 225.557C211.015 209.26 191.804 186.297 169.693 163.705C151.393 145.346 123.319 145.712 99.4893 153.06C103.749 165.334 111.545 176.727 118.949 188.52C127.649 202.594 116.049 217.779 103.723 225.186C92.4855 231.112 79.0744 230.742 70.7374 240.742C61.4522 252.053 58.1485 265.253 57.1411 279.012C55.5337 301.027 67.2115 321.879 86.7263 331.357C100.137 337.871 115.145 341.516 130.982 341.516H262.919C319.948 341.516 366.178 294.279 366.178 236.008V210.049C351.019 214.301 336.219 223.368 322.66 231.483C313.597 237.038 303.448 240.742 292.937 241.853Z"
    fill="#3EC8AC"
    opacity="0.4"/>
  <path
    d="M270.826 308.888C264.107 310.177 257.511 310.217 250.963 309.814C247.615 310.44 244.207 310.88 240.741 311.11C198.329 313.332 155.559 308.888 117.496 287.406C106.985 281.48 98.648 272.591 87.048 268.888C77.7295 266.01 68.2813 266.043 58.8591 266.377C57.9924 270.506 57.4554 274.732 57.1443 279.01C55.5369 301.025 67.2147 321.877 86.7295 331.354C100.141 337.869 115.148 341.514 130.985 341.514H262.922C303.2 341.514 338.085 317.951 355.107 283.58C343.604 283.821 331.978 286.417 321.211 290.369C304.174 296.666 288.952 305.184 270.826 308.888Z"
    fill="#3EC8AC"
    opacity="0.4"/>
  <path
    d="M278.689 269.086C269.589 286.234 248.886 293.186 230.526 289.875C211.078 286.368 194.015 272.779 182.908 256.827C177.526 249.097 174.063 239.345 177.497 230.09C179.026 225.964 182.564 222.086 186.926 220.975C193.571 219.275 198.867 226.19 204.404 228.62C210.545 231.305 217.441 231.886 223.997 230.571C229.756 229.412 235.012 226.531 240.823 225.494C245.826 224.597 250.952 225.416 255.712 227.068C264.145 229.997 272.912 235.879 277.93 243.345C283.223 251.231 283.082 260.82 278.689 269.083V269.086Z"
    fill="#4D81F1"/>
  <path
    d="M101.721 308.325C85.2547 298.04 79.777 276.899 84.3696 258.818C89.2362 239.666 103.988 223.599 120.681 213.64C128.77 208.814 138.74 206.048 147.733 210.122C151.74 211.936 155.358 215.736 156.162 220.17C157.392 226.918 150.121 231.714 147.31 237.066C144.199 243.003 143.136 249.84 143.984 256.473C144.736 262.303 147.24 267.744 147.866 273.614C148.407 278.67 147.233 283.722 145.247 288.355C141.733 296.559 135.247 304.896 127.447 309.373C119.21 314.099 109.655 313.281 101.721 308.322V308.325Z"
    fill="#4D81F1"/>
  <path
    d="M276.304 255.575C272.574 264.72 263.859 270.805 255.096 270.957C245.989 271.109 238.726 264.223 237.507 253.875C236.23 243.005 241.626 233.42 246.593 224.686C248.359 220.32 253.585 218.531 257.515 218.957C262.848 219.535 268.022 223.116 271.837 227.286C278.507 234.575 280.181 246.06 276.304 255.579V255.575Z"
    fill="#D6E3F7"/>
  <path
    d="M219.944 341.514H119.559V230.366C119.559 217.054 130.348 206.266 143.659 206.266H166.659C181.233 206.266 194.793 213.732 202.581 226.051C208.907 236.051 210.844 248.21 207.937 259.68L200.156 290.41L219.944 341.514Z"
    fill="#4D81F1"/>
  <path
    d="M175.984 218.664C173.499 223.467 166.24 222.812 155.714 218.415C153.007 217.286 151.329 214.545 151.57 211.623L153.003 194.308H174.899L176.629 215.175C176.729 216.375 176.536 217.593 175.981 218.664H175.984Z"
    fill="#D6E3F7"/>
  <path d="M153.282 197.861L152.93 202.098C160.048 207.005 167.933 210.524 176.374 212.298L175.178 197.861H153.282Z"
        fill="#E5EDFE"/>
  <path
    d="M171.832 292.187C172.536 296.828 173.513 304.513 171.41 308.091C168.073 313.743 146.236 311.813 143.406 310.317C142.28 309.721 141.321 309.006 140.476 308.217C137.121 309.336 133.187 309.358 130.139 307.947C125.917 305.987 124.336 301.939 124.636 297.465C124.887 293.665 125.41 289.113 128.891 286.839C132.421 284.532 136.136 285.98 139.858 286.736C140.106 286.361 140.362 286.002 140.639 285.658C140.676 285.38 140.821 285.098 141.095 284.85C145.906 280.491 150.536 275.61 154.143 270.191C155.158 268.658 157.81 268.728 158.273 270.732C159.313 275.236 158.11 279.721 155.362 282.98C155.547 283.065 155.728 283.154 155.913 283.25C158.391 282.969 160.869 282.761 163.395 282.71C166.017 282.654 168.787 282.673 170.85 284.55C173.406 286.865 173.336 289.913 171.817 292.18L171.832 292.187Z"
    fill="#D6E3F7"/>
  <path
    d="M209.347 237.86C208.951 236.356 206.629 236.993 207.018 238.5C208.503 244.278 209.04 250.156 208.499 256.1C208.221 259.163 207.64 262.171 206.773 265.119C205.966 267.867 204.629 270.378 203.725 273.074C203.077 275.008 206.055 276.256 207.014 274.463C209.803 269.263 210.718 262.456 211.147 256.63C211.61 250.326 210.951 243.963 209.347 237.86Z"
    fill="#074438"/>
  <path
    d="M176.512 247.141C176.545 246.582 176.419 246.015 176.09 245.482C174.601 243.067 170.694 243.993 169.923 246.508C169.505 247.878 170.064 249.508 171.282 250.263C173.505 251.641 176.375 249.478 176.512 247.141Z"
    fill="#074438"/>
  <path
    d="M176.512 265.581C176.545 265.022 176.419 264.455 176.09 263.922C174.601 261.507 170.694 262.433 169.923 264.948C169.505 266.318 170.064 267.948 171.282 268.703C173.505 270.081 176.375 267.918 176.512 265.581Z"
    fill="#074438"/>
  <path
    d="M109.361 253.255C105.25 250.762 100.917 248.625 96.3795 247.029C94.7202 246.444 94.0424 249.04 95.6572 249.644C99.9721 251.255 104.094 253.133 108.065 255.47C109.491 256.31 110.772 254.11 109.361 253.255Z"
    fill="#074438"/>
  <path
    d="M122.206 284.828C120.884 283.795 119.558 282.769 118.239 281.732C116.999 280.758 115.788 279.587 114.402 278.832C112.999 278.065 111.562 279.88 112.688 281.054C113.784 282.195 115.225 283.058 116.495 283.999C117.843 284.999 119.184 286.01 120.525 287.013C121.776 287.95 123.454 285.802 122.21 284.832L122.206 284.828Z"
    fill="#074438"/>
  <path
    d="M129.086 262.314C124.437 259.954 119.367 259.099 114.245 259.021C116.219 252.606 119.519 246.847 124.06 241.88C125.078 240.765 123.434 239.106 122.397 240.217C117.36 245.628 113.708 251.984 111.497 259.036C111.497 259.036 111.497 259.039 111.497 259.043C108.786 259.139 106.078 259.417 103.423 259.773C102.034 259.958 102.349 262.406 103.756 262.243C111.252 261.369 119.315 261.147 126.315 264.428C132.682 267.414 136.926 272.836 137.823 279.791C138.108 281.984 141.382 282.151 141.374 279.791C141.352 272.258 135.5 265.565 129.086 262.31V262.314Z"
    fill="#074438"/>
  <path
    d="M128.906 309.612C126.703 310.779 124.458 311.342 122.017 311.745C120.592 311.979 120.914 314.382 122.362 314.282C125.125 314.086 127.792 313.16 130.221 311.856C131.695 311.064 130.388 308.83 128.91 309.612H128.906Z"
    fill="#074438"/>
  <path
    d="M231.673 247.441C228.81 246.5 225.951 245.559 223.088 244.619C221.559 244.115 220.892 246.541 222.425 247.03C225.292 247.945 228.162 248.859 231.029 249.774C232.518 250.248 233.144 247.926 231.67 247.445L231.673 247.441Z"
    fill="#074438"/>
  <path
    d="M230.239 255.634C227.376 255.575 224.498 255.386 221.639 255.412C219.791 255.427 219.802 258.197 221.639 258.271C224.494 258.39 227.376 258.297 230.239 258.331C231.976 258.349 231.972 255.671 230.239 255.634Z"
    fill="#074438"/>
  <path
    d="M117.71 293.12C115.781 292.735 113.844 292.268 111.903 291.957C110.207 291.683 109.433 294.202 111.177 294.59C113.103 295.016 115.073 295.294 117.018 295.646C118.655 295.942 119.373 293.457 117.714 293.124L117.71 293.12Z"
    fill="#074438"/>
  <path
    d="M194.231 142.945C177.705 136.404 155.812 141.73 146.138 156.93C143.864 160.178 148.086 164.404 148.738 168.304C149.064 170.578 148.09 172.53 146.138 174.152C143.153 176.145 140.59 178.389 138.279 180.889L139.323 182.322L147.823 193.974C153.046 201.133 161.372 205.367 170.231 205.367C185.549 205.367 197.968 192.948 197.968 177.63V158.496C197.968 152.896 196.62 147.611 194.231 142.945Z"
    fill="#F2F4F7"/>
  <path
    d="M197.406 152.307C196.799 148.996 195.717 145.848 194.229 142.944C178.743 136.815 158.543 141.107 148.103 154.178C152.055 157.866 156.21 161.348 161.41 162.129C173.81 164.285 188.214 161.07 197.406 152.311V152.307Z"
    fill="#E5EDFE"/>
  <path
    d="M146.138 174.153C148.086 172.527 160.66 167.853 160.334 165.578C159.686 161.678 159.445 151.704 160.349 150.63C169.908 139.308 183.034 140.938 194.23 142.941C188.571 131.893 177.071 124.33 163.804 124.33C144.938 124.33 129.641 139.627 129.641 158.493C129.641 164.264 131.071 169.697 133.601 174.464C133.601 174.471 133.608 174.478 133.612 174.482L138.282 180.886C140.593 178.386 143.156 176.141 146.141 174.149L146.138 174.153Z"
    fill="#074438"/>
  <path d="M133.608 174.486L133.593 174.467C133.593 174.467 133.601 174.482 133.605 174.486H133.608Z" fill="#F2F4F7"/>
  <path
    d="M149.167 169.955C149.167 169.955 157.408 186.521 153.101 196.718C148.797 206.91 119.327 221.584 101.538 197.862C101.538 197.862 127.53 188.477 129.638 158.495C131.745 128.514 149.167 169.955 149.167 169.955Z"
    fill="#074438"/>
  <path
    d="M147.916 180.019C153.474 180.019 157.979 175.513 157.979 169.956C157.979 164.398 153.474 159.893 147.916 159.893C142.359 159.893 137.853 164.398 137.853 169.956C137.853 175.513 142.359 180.019 147.916 180.019Z"
    fill="#F2F4F7"/>
  <path
    d="M147.916 175.147C145.057 175.147 142.727 172.821 142.727 169.958C142.727 167.095 145.053 164.769 147.916 164.769C150.779 164.769 153.105 167.095 153.105 169.958C153.105 172.821 150.779 175.147 147.916 175.147Z"
    fill="#E5EDFE"/>
  <path
    d="M183.62 212.099C181.865 211.41 181.109 214.236 182.843 214.921C185.465 215.958 188.38 217.506 189.258 220.417C190.061 223.095 187.506 227.391 184.628 224.64C183.383 223.451 181.524 224.947 182.291 226.443C185.032 231.791 178.498 235.803 173.92 235.854C169.283 235.906 165.602 232.984 163.843 228.84C163.458 227.932 162.087 227.914 161.48 228.536C158.265 231.814 153.806 233.721 149.165 233.203C146.169 232.865 143.035 231.203 143.909 227.599C144.517 225.095 146.735 223.321 148.628 221.773C149.954 220.688 148.069 218.851 146.758 219.903C144.139 221.991 141.495 224.454 141.046 227.965C140.65 231.084 142.187 233.721 144.98 235.08C150.528 237.78 157.491 235.825 162.117 232.028C165.176 237.128 171.158 239.851 177.124 238.414C181.995 237.24 186.128 233.069 185.813 228.277C188.587 228.569 191.476 226.803 192.254 223.78C193.765 217.906 188.369 213.958 183.632 212.106L183.62 212.099Z"
    fill="#074438"/>
  <path
    d="M153.106 206.131C155.702 194.172 154.191 186.787 154.191 186.787L132.931 197.446L127.198 220.709C127.198 220.709 150.509 218.087 153.106 206.128V206.131Z"
    fill="#074438"/>
  <path
    d="M174.908 152.357C174.404 154.361 173.334 156.661 174.586 158.309C175.775 159.879 178.197 159.594 180.06 158.957C185.741 157.016 190.771 153.216 194.186 148.276C194.097 150.953 194.104 153.92 195.882 155.928C198.015 158.335 201.86 158.305 204.867 157.161C208.682 155.713 211.949 152.698 213.375 148.879C214.801 145.061 214.241 140.472 211.66 137.313C209.219 134.324 205.356 132.861 201.564 132.146C192.193 130.379 182.141 132.557 174.338 138.039C172.182 139.553 170.46 141.879 172.623 144.061C174.908 146.365 175.741 149.039 174.904 152.357H174.908Z"
    fill="#074438"/>
  <path
    d="M139.399 152.356C138.895 154.36 137.825 156.66 139.077 158.308C140.265 159.879 142.688 159.593 144.551 158.956C150.232 157.016 155.262 153.216 158.677 148.275C158.588 150.953 158.595 153.919 160.373 155.927C162.506 158.334 166.351 158.305 169.358 157.16C173.173 155.712 176.44 152.697 177.865 148.879C179.295 145.056 178.732 140.471 176.151 137.312C173.71 134.323 169.847 132.86 166.054 132.145C156.684 130.379 146.632 132.556 138.828 138.038C136.673 139.553 134.951 141.879 137.114 144.06C139.399 146.364 140.232 149.038 139.395 152.356H139.399Z"
    fill="#074438"/>
  <path
    d="M171.412 164.893C167.664 164.893 167.657 170.719 171.412 170.719C175.168 170.719 175.168 164.893 171.412 164.893Z"
    fill="#074438"/>
  <path
    d="M190.071 164.893C186.323 164.893 186.316 170.719 190.071 170.719C193.827 170.719 193.827 164.893 190.071 164.893Z"
    fill="#074438"/>
  <path
    d="M147.917 182.608C149.347 182.608 150.506 181.449 150.506 180.019C150.506 178.59 149.347 177.431 147.917 177.431C146.487 177.431 145.328 178.59 145.328 180.019C145.328 181.449 146.487 182.608 147.917 182.608Z"
    fill="#50C62C"/>
  <path
    d="M186.256 175.523C184.553 173.649 183.541 171.308 183.223 168.804C183.053 167.449 180.904 167.412 181.06 168.804C181.408 171.901 182.519 174.871 184.434 177.345C184.904 177.953 185.471 178.482 185.941 179.09C186.523 179.841 186.138 180.075 185.371 180.501C183.808 181.375 182.197 181.167 180.527 180.797C179.03 180.464 178.041 182.527 179.456 183.338C181.182 184.327 183.338 184.39 185.223 183.823C186.934 183.308 189.082 182.112 189.308 180.156C189.553 178.06 187.471 176.864 186.256 175.527V175.523Z"
    fill="#074438"/>
  <path
    d="M183.974 188.77C178.455 190.029 173.029 189.467 168.2 186.352C167.348 185.804 166.581 187.144 167.411 187.704C172.285 190.996 178.785 192.396 184.5 190.674C185.718 190.307 185.214 188.489 183.974 188.77Z"
    fill="#074438"/>
  <path
    d="M180.212 194.127C179.427 194.098 178.641 194.079 177.86 194.027C176.967 193.968 176.175 193.698 175.282 193.968C173.278 194.575 173.275 197.427 175.282 198.035C176.175 198.305 176.967 198.035 177.86 197.975C178.641 197.923 179.43 197.905 180.212 197.875C182.627 197.783 182.63 194.212 180.212 194.123V194.127Z"
    fill="#E5EDFE"/>
  <path
    d="M232.962 225.104C232.317 229.289 233.703 233.948 238.595 235.163C238.829 235.274 239.103 235.359 239.417 235.385C254.343 236.808 270.973 237.37 285.988 234.667C289.895 237.415 297.262 236.908 301.214 235.333C305.699 233.545 306.455 227.619 305.443 223.811C307.429 223.026 309.74 212.515 307.136 210.156C311.799 207.556 310.951 193.985 308.577 193.952C312.995 192.874 314.466 184.285 311.384 179.978C308.458 175.893 303.858 175.433 298.447 175.337C291.229 175.204 283.869 176.008 276.669 176.404C270.329 176.745 246.177 175.293 240.292 177.504C228.61 181.885 232.869 196.026 234.74 205.804C235.977 212.278 233.98 218.519 232.966 225.1L232.962 225.104Z"
    fill="#D6E3F7"/>
  <path
    d="M252.091 247.984L290.962 248.106C295.781 248.121 299.7 244.227 299.715 239.408L299.983 154.005C299.998 149.185 296.104 145.266 291.285 145.251L252.415 145.129C247.595 145.114 243.676 149.008 243.661 153.828L243.393 239.231C243.378 244.05 247.272 247.969 252.091 247.984Z"
    fill="#074438"/>
  <path
    d="M297.55 153.989L297.281 239.396C297.271 242.855 294.451 245.657 290.991 245.646L252.118 245.524C248.658 245.513 245.856 242.693 245.867 239.234L246.135 153.827C246.146 150.368 248.966 147.566 252.425 147.576L291.299 147.699C294.758 147.709 297.561 150.526 297.55 153.989Z"
    fill="white"/>
  <path
    d="M246.398 152.029C247.179 149.444 249.583 147.558 252.416 147.57L264.146 147.607C274.62 158.858 286.168 168.94 297.461 179.318L297.386 202.214C280.949 184.929 263.235 168.918 246.398 152.029Z"
    fill="#E5EDFE"/>
  <path
    d="M245.966 203.097C260.073 218.167 275.377 231.867 290.717 245.638L259.999 245.541C255.266 240.649 250.521 235.786 245.877 230.856L245.966 203.101V203.097Z"
    fill="#E5EDFE"/>
  <path
    d="M261.493 192.559C262.634 194.089 262.245 196.381 260.715 197.518C256.189 200.252 250.867 199.952 245.985 198.026L246.037 182.229C251.982 184.222 257.241 187.563 261.496 192.559H261.493Z"
    fill="#D6E3F7"/>
  <path
    d="M280.323 152.331L263.334 152.277C261.601 152.272 260.194 150.86 260.2 149.123L260.209 146.079L283.483 146.152L283.474 149.196C283.468 150.93 282.056 152.336 280.319 152.331L280.323 152.331Z"
    fill="#074438"/>
  <path
    d="M237.714 184.731C238.814 187.531 241.492 189.82 244.033 191.28C248.751 193.998 255.314 194.809 260.251 192.135C262.703 190.806 264.551 188.402 263.799 185.506C263.107 182.835 260.57 181.068 258.162 179.828C253.059 177.198 245.736 174.109 240.285 177.509C237.833 179.035 236.636 181.983 237.714 184.731Z"
    fill="#F2F4F7"/>
  <path
    d="M310.429 183.374C309.958 180.429 308.151 179.007 305.529 178.355C303.61 177.878 301.673 177.459 299.714 177.3C296.173 177.015 292.032 177.511 289.821 181.281C288.106 184.204 288.58 188.192 290.51 190.8C292.621 193.648 295.832 194.485 298.892 194.489C301.832 194.489 305.095 194.218 307.58 192.152C309.51 190.552 310.614 187.548 310.547 184.711C310.536 184.233 310.495 183.789 310.429 183.374Z"
    fill="#F2F4F7"/>
  <path
    d="M317.063 290.218C316.738 285.788 315.845 281.41 314.382 277.214C311.434 268.747 306.382 261.114 299.5 255.34C298.393 254.41 296.812 255.921 297.889 256.951C304.023 262.807 308.478 270.292 310.826 278.429C311.975 282.414 312.626 286.525 312.749 290.673C312.812 292.795 312.749 294.925 312.538 297.036C312.33 299.144 311.789 301.214 311.697 303.329C311.649 304.381 312.538 305.273 313.53 305.407C314.656 305.558 315.441 304.881 315.852 303.892C316.734 301.773 316.889 299.31 317.06 297.036C317.23 294.766 317.23 292.488 317.063 290.218Z"
    fill="#50C62C"/>
  <path
    d="M266.367 332.81C288.088 332.81 305.696 315.202 305.696 293.481C305.696 271.76 288.088 254.151 266.367 254.151C244.646 254.151 227.037 271.76 227.037 293.481C227.037 315.202 244.646 332.81 266.367 332.81Z"
    fill="#50C62C"/>
  <path
    d="M310.63 311C310.252 312.17 309.811 313.278 309.204 314.348C308.623 315.374 307.793 316.27 307.267 317.311C306.426 318.97 308.682 321.052 310.011 319.43C311.682 317.385 312.53 314.23 313.167 311.7C313.582 310.052 311.152 309.396 310.634 311H310.63Z"
    fill="#50C62C"/>
  <path
    d="M230.753 324.984C227.42 320.702 224.827 315.835 223.127 310.684C222.301 308.184 221.675 305.621 221.253 303.021C220.849 300.532 220.275 297.413 220.76 294.909C221.39 291.661 216.249 291.584 216.842 294.909C217.09 296.306 217.008 297.787 217.153 299.202C217.301 300.628 217.497 302.05 217.757 303.461C218.29 306.384 219.09 309.258 220.134 312.039C222.175 317.476 225.082 322.484 228.779 326.961C229.938 328.365 231.838 326.376 230.757 324.984H230.753Z"
    fill="#50C62C"/>
  <path
    d="M223.334 272.456C221.56 274.394 220.027 276.556 218.801 278.882C218.182 280.053 217.66 281.268 217.167 282.497C216.623 283.86 215.982 284.994 216.852 286.375C217.334 287.138 218.552 287.653 219.367 287.034C220.564 286.127 220.619 285.356 220.76 283.971C220.875 282.834 221.227 281.679 221.597 280.601C222.39 278.297 223.656 276.205 225.215 274.342C226.301 273.045 224.504 271.175 223.33 272.456H223.334Z"
    fill="#50C62C"/>
  <path
    d="M284.233 275.928C280.059 280.15 275.903 284.387 271.644 288.495C268.399 291.628 265.351 295.006 262.222 298.283C260.925 297.069 259.622 295.861 258.322 294.65C256.029 292.513 253.655 289.569 250.944 288.232C249.207 287.376 247.311 287.346 245.888 288.98C244.662 290.387 244.173 293.065 245.236 294.776C247.014 297.639 249.681 299.635 252.066 301.82C254.459 304.013 256.844 306.22 259.262 308.372C261.655 310.498 264.277 310.172 266.107 307.361C269.296 302.458 273.062 297.932 276.581 293.335C280.14 288.683 283.962 284.354 287.929 280.165C290.422 277.535 286.74 273.391 284.229 275.928H284.233Z"
    fill="white"/>
</svg>
