<svg fill="none" height="250" viewBox="0 0 400 400" width="250" xmlns="http://www.w3.org/2000/svg">
  <path
    d="M263.304 68.189H165.17C131.922 68.189 103.063 92.2371 97.1518 125.604C97.0667 126.078 96.9889 126.556 96.9111 127.037C93.2778 150.37 106.715 168.889 119.063 188.519C127.778 202.593 116.159 217.778 103.811 225.185C92.5518 231.111 79.1148 230.741 70.763 240.741C61.4592 252.052 58.1518 265.252 57.1444 279.011C55.5333 301.026 67.2333 321.878 86.7815 331.356C100.219 337.87 115.252 341.515 131.122 341.515H263.307C320.441 341.515 366.759 294.278 366.759 236.007V173.696C366.759 115.426 320.444 68.189 263.307 68.189H263.304Z"
    fill="#3EC8AC"
    opacity="0.4"/>
  <path
    d="M273.737 265.185C247.07 274.074 224.848 290.37 200.404 304.815C191.144 310.37 182.256 315.556 171.515 313.333C151.144 310 132.996 303.333 117.07 290C105.219 280.741 94.8481 269.63 80.4037 265.556C73.7185 263.485 66.6259 262.652 59.6185 263.163C58.2926 268.307 57.5407 273.615 57.1444 279.011C55.5333 301.026 67.2333 321.878 86.7815 331.356C100.219 337.87 115.252 341.515 131.122 341.515H263.307C307.559 341.515 345.311 313.178 360.093 273.326C332.848 259.963 302.537 255.411 273.737 265.185Z"
    fill="#3EC8AC"
    opacity="0.4"/>
  <path
    d="M334.639 180.067C334.313 175.638 333.42 171.26 331.957 167.064C329.009 158.597 323.957 150.964 317.076 145.19C315.968 144.26 314.387 145.771 315.464 146.801C321.598 152.656 326.053 160.142 328.401 168.279C329.55 172.264 330.201 176.375 330.324 180.523C330.387 182.645 330.324 184.775 330.113 186.886C329.905 188.993 329.364 191.064 329.272 193.179C329.224 194.23 330.113 195.123 331.105 195.256C332.231 195.408 333.016 194.73 333.427 193.742C334.309 191.623 334.464 189.16 334.635 186.886C334.805 184.616 334.805 182.338 334.639 180.067Z"
    fill="#50C62C"/>
  <path
    d="M283.942 222.66C305.663 222.66 323.272 205.052 323.272 183.331C323.272 161.609 305.663 144.001 283.942 144.001C262.221 144.001 244.613 161.609 244.613 183.331C244.613 205.052 262.221 222.66 283.942 222.66Z"
    fill="#50C62C"/>
  <path
    d="M328.205 200.849C327.827 202.02 327.387 203.127 326.779 204.197C326.198 205.223 325.368 206.12 324.842 207.16C324.002 208.82 326.257 210.901 327.587 209.279C329.257 207.234 330.105 204.079 330.742 201.549C331.157 199.901 328.727 199.246 328.209 200.849H328.205Z"
    fill="#50C62C"/>
  <path
    d="M248.327 214.834C244.994 210.553 242.402 205.686 240.702 200.534C239.876 198.034 239.25 195.471 238.827 192.871C238.424 190.382 237.85 187.264 238.335 184.76C238.964 181.512 233.824 181.434 234.416 184.76C234.664 186.157 234.583 187.638 234.727 189.053C234.876 190.479 235.072 191.901 235.331 193.312C235.864 196.234 236.664 199.108 237.709 201.89C239.75 207.327 242.657 212.334 246.353 216.812C247.513 218.216 249.413 216.227 248.331 214.834H248.327Z"
    fill="#50C62C"/>
  <path
    d="M240.909 162.31C239.135 164.247 237.602 166.41 236.376 168.735C235.757 169.906 235.235 171.121 234.742 172.35C234.198 173.713 233.557 174.847 234.427 176.228C234.909 176.991 236.127 177.506 236.942 176.887C238.139 175.98 238.194 175.21 238.335 173.824C238.45 172.687 238.801 171.532 239.172 170.454C239.964 168.15 241.231 166.058 242.79 164.195C243.876 162.898 242.079 161.028 240.905 162.31H240.909Z"
    fill="#50C62C"/>
  <path
    d="M301.808 165.778C297.634 170 293.478 174.237 289.219 178.345C285.974 181.478 282.926 184.856 279.797 188.133C278.5 186.919 277.197 185.711 275.897 184.5C273.604 182.363 271.23 179.419 268.519 178.082C266.782 177.226 264.885 177.196 263.463 178.83C262.237 180.237 261.748 182.915 262.811 184.626C264.589 187.489 267.256 189.485 269.641 191.67C272.034 193.863 274.419 196.07 276.837 198.222C279.23 200.348 281.852 200.022 283.682 197.211C286.871 192.308 290.637 187.782 294.156 183.185C297.715 178.533 301.537 174.204 305.504 170.015C307.997 167.385 304.315 163.241 301.804 165.778H301.808Z"
    fill="white"/>
  <path
    d="M325.959 289.999C297.07 284.814 273.366 267.777 256.329 242.592C248.922 231.851 242.626 222.221 237.44 211.11C236.7 209.999 235.588 209.629 234.848 208.518C217.811 176.295 183.737 158.518 148.551 159.629C134.451 160.099 121.544 166.092 110.4 174.758C113.192 179.336 116.159 183.895 119.066 188.518C127.781 202.592 116.163 217.777 103.814 225.184C92.5551 231.11 79.1181 230.74 70.7662 240.74C61.4625 252.051 58.1551 265.251 57.1477 279.01C55.5366 301.025 67.2366 321.877 86.7848 331.355C100.222 337.869 115.255 341.514 131.126 341.514H263.311C302.011 341.514 335.74 319.84 353.481 287.747C344.611 290.499 335.466 291.829 325.963 290.003L325.959 289.999Z"
    fill="#3EC8AC"
    opacity="0.4"/>
  <path
    d="M82.7037 219.985C93.4445 223.689 106.778 217.022 109.37 204.059C112.322 189.726 104.119 175.641 93.3259 166.793C78.3963 154.552 49.5593 148.933 48.3593 176.122C47.3222 199.604 62.0481 212.867 82.7 219.989L82.7037 219.985Z"
    fill="#3EC8AC"
    opacity="0.4"/>
  <path
    d="M82.7037 219.985C93.4445 223.689 106.778 217.022 109.37 204.059C112.322 189.726 104.119 175.641 93.3259 166.793C78.3963 154.552 49.5593 148.933 48.3593 176.122C47.3222 199.604 62.0481 212.867 82.7 219.989L82.7037 219.985Z"
    fill="#3EC8AC"
    opacity="0.4"/>
  <path
    d="M69.2875 137.781C71.1912 142.648 77.5023 145.329 82.8171 142.374C88.7171 139.133 91.206 132.063 91.0875 125.644C90.9245 116.763 84.2949 104.989 74.4134 112.674C65.8801 119.311 65.6245 128.426 69.2875 137.781Z"
    fill="#3EC8AC"
    opacity="0.4"/>
  <path
    d="M222.023 341.516H121.497L108.282 230.198C106.76 217.368 116.782 206.083 129.7 206.083H195.882C208.056 206.083 217.815 216.15 217.441 228.316L215.537 290.276L222.019 341.516H222.023Z"
    fill="#4D81F1"/>
  <path
    d="M177.999 218.498C175.51 223.305 168.243 222.65 157.703 218.25C154.992 217.117 153.31 214.376 153.551 211.45L154.988 194.113H176.914L178.647 215.009C178.747 216.209 178.555 217.431 177.999 218.502V218.498Z"
    fill="#D6E3F7"/>
  <path
    d="M155.266 197.669L154.914 201.91C162.04 206.821 169.94 210.347 178.392 212.124L177.195 197.669H155.269H155.266Z"
    fill="#E5EDFE"/>
  <path
    d="M196.272 142.679C179.724 136.128 157.802 141.461 148.117 156.683C145.839 159.939 150.069 164.168 150.721 168.072C151.047 170.35 150.069 172.302 148.117 173.928C145.128 175.92 142.561 178.172 140.247 180.672L141.295 182.105L149.806 193.772C155.035 200.939 163.372 205.179 172.247 205.179C187.584 205.179 200.021 192.746 200.021 177.405V158.246C200.021 152.639 198.672 147.346 196.28 142.676L196.272 142.679Z"
    fill="#F2F4F7"/>
  <path
    d="M199.454 152.053C198.846 148.735 197.761 145.587 196.272 142.676C180.765 136.539 153.88 124.724 143.424 137.813C147.38 141.509 151.543 144.994 156.746 145.776C169.161 147.935 190.25 160.824 199.454 152.053Z"
    fill="#E5EDFE"/>
  <path
    d="M148.112 173.928C150.064 172.302 162.653 167.621 162.331 165.343C161.679 161.439 161.438 151.45 162.346 150.376C171.92 139.039 185.061 140.672 196.272 142.676C190.605 131.613 179.09 124.039 165.805 124.039C146.912 124.039 131.594 139.358 131.594 158.25C131.594 164.028 133.027 169.469 135.557 174.243C135.557 174.25 135.564 174.258 135.568 174.261L140.246 180.672C142.561 178.169 145.127 175.921 148.116 173.928H148.112Z"
    fill="#074438"/>
  <path d="M135.565 174.262L135.55 174.244C135.55 174.244 135.557 174.259 135.561 174.262H135.565Z" fill="#F2F4F7"/>
  <path
    d="M149.894 179.801C155.46 179.801 159.972 175.289 159.972 169.723C159.972 164.157 155.46 159.645 149.894 159.645C144.328 159.645 139.816 164.157 139.816 169.723C139.816 175.289 144.328 179.801 149.894 179.801Z"
    fill="#F2F4F7"/>
  <path
    d="M149.895 174.92C147.032 174.92 144.698 172.59 144.698 169.724C144.698 166.857 147.028 164.527 149.895 164.527C152.761 164.527 155.091 166.857 155.091 169.724C155.091 172.59 152.761 174.92 149.895 174.92Z"
    fill="#E5EDFE"/>
  <path
    d="M169.225 125.915C168.717 123.908 167.651 121.608 168.899 119.956C170.091 118.386 172.517 118.667 174.38 119.304C180.069 121.245 185.106 125.052 188.525 130C188.436 127.319 188.443 124.349 190.221 122.341C192.358 119.93 196.206 119.963 199.221 121.108C203.039 122.56 206.31 125.575 207.739 129.4C209.169 133.226 208.606 137.819 206.021 140.982C203.576 143.978 199.71 145.438 195.91 146.152C186.525 147.919 176.462 145.741 168.647 140.252C166.488 138.734 164.762 136.404 166.932 134.223C169.221 131.915 170.054 129.238 169.217 125.915H169.225Z"
    fill="#074438"/>
  <path
    d="M169.32 164.654C165.565 164.654 165.561 170.488 169.32 170.488C173.079 170.488 173.079 164.654 169.32 164.654Z"
    fill="#074438"/>
  <path
    d="M188.005 164.654C184.249 164.654 184.246 170.488 188.005 170.488C191.764 170.488 191.764 164.654 188.005 164.654Z"
    fill="#074438"/>
  <path
    d="M182.236 193.925C181.451 193.895 180.666 193.877 179.88 193.825C178.988 193.766 178.192 193.495 177.299 193.766C175.292 194.373 175.292 197.229 177.299 197.84C178.192 198.11 178.988 197.84 179.88 197.78C180.666 197.729 181.451 197.71 182.236 197.68C184.655 197.588 184.658 194.014 182.236 193.921V193.925Z"
    fill="#E5EDFE"/>
  <path
    d="M186.061 176.834C185.324 176.623 184.475 176.863 183.724 177.026C182.553 177.282 180.52 176.704 179.868 177.926C179.39 178.826 179.824 179.93 180.794 180.23C181.724 180.519 182.753 180.678 183.727 180.663C184.798 180.645 186.157 180.66 186.868 179.745C187.449 178.997 187.527 178 186.838 177.297C186.605 177.056 186.338 176.911 186.061 176.834Z"
    fill="#E5EDFE"/>
  <path
    d="M189.266 184.052C186.129 184.386 183.077 185.112 179.914 185.271C176.762 185.43 173.614 185.289 170.488 184.874C169.484 184.741 169.24 186.493 170.247 186.656C173.444 187.174 176.673 187.441 179.914 187.349C183.069 187.256 186.54 187.06 189.529 185.982C190.492 185.634 190.444 183.93 189.269 184.056L189.266 184.052Z"
    fill="#074438"/>
  <path
    d="M248.761 277.178C247.931 273.349 246.764 269.619 245.179 266.038C244.112 263.634 243.098 261.201 242.016 258.801C241.894 257.467 241.716 256.164 241.568 254.96C241.283 252.69 240.979 250.478 239.816 248.46C239.738 248.323 239.653 248.19 239.568 248.06C238.975 245.001 238.194 241.982 237.512 238.938C237.053 236.878 236.568 234.823 236.049 232.775C235.52 230.686 235.083 228.367 233.001 227.26C231.453 226.438 229.731 226.753 228.512 227.753C227.749 225.697 226.905 223.671 225.938 221.712C225.186 220.19 223.131 219.501 221.561 219.93C220.498 220.223 219.712 220.919 219.238 221.816C219.101 221.39 218.964 220.96 218.827 220.534C218.072 218.223 215.746 216.734 213.312 217.401C210.794 218.093 209.805 220.527 210.179 222.916C210.931 227.678 212.286 232.412 213.346 237.116C213.52 237.882 213.698 238.649 213.872 239.412C209.953 237.634 204.827 238.267 201.246 241.086C196.22 245.049 194.646 252.404 198.179 257.886C199.768 260.353 201.998 262.108 204.501 263.064C205.153 263.675 205.864 264.238 206.564 264.786C208.305 266.16 210.149 267.475 212.094 268.545C212.49 268.764 212.894 268.982 213.298 269.201C213.261 275.938 213.538 282.73 216.19 289.019C218.649 294.841 223.231 299.956 229.398 301.875C235.086 303.645 242.342 302.275 246.335 297.638C251.342 291.827 250.257 284.093 248.761 277.171V277.178ZM213.146 251.49C212.772 253.304 212.312 253.83 210.775 254.745C210.694 254.786 210.627 254.816 210.572 254.845C210.338 254.927 210.101 255.001 209.864 255.06C209.694 255.104 209.527 255.141 209.353 255.175C209.309 255.175 209.179 255.182 208.957 255.197C208.738 255.201 208.52 255.197 208.301 255.186C208.235 255.171 208.149 255.156 208.038 255.134C207.823 255.082 207.612 255.016 207.405 254.945C207.379 254.934 207.353 254.919 207.32 254.901C207.19 254.83 206.327 254.253 206.49 254.408C206.157 254.127 205.835 253.804 205.564 253.464C205.661 253.553 205.286 252.93 205.101 252.608C205.127 252.597 204.938 252.03 204.831 251.697C204.861 251.682 204.809 251.108 204.786 250.76C204.82 250.627 204.886 250.09 204.909 250.008C204.961 249.823 205.02 249.638 205.086 249.456C205.086 249.471 205.153 249.349 205.279 249.082C205.394 248.875 205.52 248.675 205.649 248.478C205.698 248.427 205.764 248.349 205.857 248.238C206.049 248.034 206.249 247.838 206.457 247.649C206.142 247.86 206.19 247.823 206.601 247.541C206.764 247.438 207.912 246.93 207.572 247.019C207.875 246.923 208.186 246.834 208.501 246.778C208.349 246.823 209.072 246.816 209.453 246.816C209.464 246.853 210.461 247.041 210.601 247.086C210.735 247.13 212.179 247.656 211.564 247.427C211.823 247.523 212.057 247.608 212.268 247.69C212.705 248.371 212.742 248.523 213.027 249.516C213.053 249.664 213.075 249.767 213.09 249.838C213.112 250.064 213.131 250.29 213.146 250.516C213.153 250.719 212.983 252.234 213.138 251.486L213.146 251.49Z"
    fill="#F2F4F7"/>
  <path
    d="M184.142 242.647C180.564 239.828 175.434 239.195 171.516 240.973C171.694 240.206 171.868 239.44 172.045 238.673C173.108 233.969 174.46 229.236 175.212 224.473C175.59 222.084 174.601 219.651 172.082 218.958C169.649 218.288 167.323 219.78 166.568 222.088C166.431 222.514 166.294 222.94 166.153 223.366C165.679 222.473 164.894 221.777 163.831 221.484C162.264 221.054 160.208 221.74 159.453 223.262C158.486 225.225 157.642 227.251 156.879 229.303C155.66 228.303 153.934 227.988 152.386 228.81C150.305 229.917 149.868 232.236 149.342 234.325C148.823 236.373 148.338 238.425 147.875 240.488C147.197 243.532 146.412 246.551 145.82 249.61C145.731 249.74 145.649 249.877 145.571 250.01C144.408 252.032 144.105 254.24 143.82 256.514C143.745 257.088 143.668 257.684 143.597 258.291C142.797 258.558 142.005 258.847 141.212 259.136C138.62 260.088 123.96 267.566 119.305 269.736C118.69 268.254 117.934 265.288 116.953 263.999C109.26 266.028 101.282 267.043 93.2788 267.051C94.1158 282.247 101.079 300.062 114.501 306.314C117.838 306.61 121.308 305.891 124.468 304.828C133.208 301.888 141.631 297.64 149.06 292.166C153.271 289.062 157.245 285.654 160.786 281.795C163.368 278.98 165.957 275.936 167.99 272.621C169.816 271.995 171.586 271.04 173.29 270.103C175.234 269.032 177.079 267.714 178.82 266.343C179.516 265.791 180.227 265.232 180.879 264.617C183.382 263.666 185.612 261.91 187.201 259.443C190.734 253.962 189.16 246.603 184.134 242.64L184.142 242.647ZM180.512 253.254C180.445 253.74 180.29 254.214 180.042 254.643C179.001 256.454 176.482 257.232 174.597 256.328C171.123 254.666 171.523 248.947 175.557 248.425C176.653 248.284 177.808 248.499 178.734 249.106C180.064 249.984 180.734 251.691 180.512 253.254Z"
    fill="#F2F4F7"/>
  <path
    d="M186.77 245.456C186.73 246.908 186.252 248.26 185.182 249.197C183.837 250.73 182.008 251.045 180.156 250.76C180.241 250.934 180.285 251.019 180.293 251.019C180.356 251.2 180.415 251.386 180.47 251.571C180.493 251.652 180.559 252.189 180.593 252.323C180.57 252.671 180.519 253.245 180.552 253.26C180.448 253.593 180.252 254.16 180.282 254.171C180.096 254.493 179.722 255.115 179.819 255.026C179.552 255.36 179.237 255.678 178.908 255.952C178.982 255.86 178.189 256.393 178.067 256.46C178.033 256.478 178.004 256.489 177.978 256.5C177.77 256.574 177.559 256.637 177.345 256.689C177.233 256.712 177.148 256.73 177.082 256.741C176.863 256.752 176.648 256.76 176.426 256.752C176.208 256.737 176.078 256.726 176.03 256.726C175.859 256.693 175.689 256.656 175.519 256.615C175.282 256.556 175.041 256.478 174.811 256.4C174.756 256.374 174.689 256.341 174.608 256.3C173.122 255.412 172.641 254.893 172.274 253.208C172.363 253.489 172.226 252.256 172.233 252.074C172.233 252.026 172.241 251.982 172.245 251.934C170.263 248.497 170.793 244.041 172.1 240.73C171.904 240.804 171.708 240.882 171.515 240.967C171.693 240.2 171.867 239.434 172.045 238.667C173.108 233.963 174.459 229.23 175.211 224.467C175.589 222.078 174.6 219.645 172.082 218.952C169.648 218.282 167.322 219.774 166.567 222.082C166.43 222.508 166.293 222.934 166.152 223.36C165.678 222.467 164.893 221.771 163.83 221.478C162.263 221.049 160.208 221.734 159.452 223.256C158.485 225.219 157.641 227.245 156.878 229.297C157.893 241.512 155.022 254.008 155.022 254.008C155.022 254.008 160.148 255.515 161.959 257.93C165.848 263.76 167.17 273.96 167.993 272.619C169.819 271.993 171.589 271.037 173.293 270.1C175.237 269.03 177.082 267.712 178.822 266.341C179.519 265.789 180.23 265.23 180.882 264.615C183.385 263.663 185.615 261.908 187.204 259.441C190.019 255.078 189.593 249.53 186.767 245.449L186.77 245.456Z"
    fill="#E5EDFE"/>
  <path
    d="M198.753 243.949C198.794 245.4 199.272 246.752 200.342 247.689C201.686 249.223 203.516 249.538 205.368 249.252C205.283 249.426 205.238 249.512 205.231 249.512C205.168 249.693 205.109 249.878 205.053 250.063C205.031 250.145 204.964 250.682 204.931 250.815C204.953 251.163 205.005 251.738 204.972 251.752C205.075 252.086 205.272 252.652 205.242 252.663C205.427 252.986 205.801 253.608 205.705 253.519C205.972 253.852 206.286 254.171 206.616 254.445C206.542 254.352 207.335 254.886 207.457 254.952C207.49 254.971 207.52 254.982 207.546 254.993C207.753 255.067 207.964 255.13 208.179 255.182C208.29 255.204 208.375 255.223 208.442 255.234C208.661 255.245 208.875 255.252 209.098 255.245C209.316 255.23 209.446 255.219 209.494 255.219C209.664 255.186 209.835 255.149 210.005 255.108C210.242 255.049 210.483 254.971 210.712 254.893C210.768 254.867 210.835 254.834 210.916 254.793C212.401 253.904 212.883 253.386 213.249 251.701C213.161 251.982 213.298 250.749 213.29 250.567C213.29 250.519 213.283 250.475 213.279 250.426C215.261 246.989 214.731 242.534 213.423 239.223C213.62 239.297 213.816 239.375 214.009 239.46C213.831 238.693 213.657 237.926 213.479 237.16C212.416 232.456 211.064 227.723 210.312 222.96C209.935 220.571 210.923 218.138 213.442 217.445C215.875 216.775 218.201 218.267 218.957 220.575C219.094 221 219.231 221.426 219.372 221.852C219.846 220.96 220.631 220.263 221.694 219.971C223.261 219.541 225.316 220.226 226.072 221.749C227.038 223.712 227.883 225.738 228.646 227.789C227.631 240.004 230.501 252.5 230.501 252.5C230.501 252.5 225.375 254.008 223.564 256.423C219.675 262.252 218.353 272.452 217.531 271.112C215.705 270.486 213.935 269.53 212.231 268.593C210.286 267.523 208.442 266.204 206.701 264.834C206.005 264.282 205.294 263.723 204.642 263.108C202.138 262.156 199.909 260.4 198.32 257.934C195.505 253.571 195.931 248.023 198.757 243.941L198.753 243.949Z"
    fill="#E5EDFE"/>
  <path
    d="M128.827 260.745C128.498 261.519 128.083 262.249 127.531 262.893C125.935 264.76 123.483 265.626 121.116 266.289C111.894 268.875 102.153 269.597 92.6531 268.389C91.6939 268.267 90.642 268.071 90.0531 267.308C89.5568 266.663 89.5272 265.782 89.5309 264.967C89.6383 244.241 96.9383 223.363 114.209 210.863C115.564 209.882 117.023 208.937 118.679 208.708C126.183 207.667 129.479 218.46 130.401 224.023C132.175 234.737 131.875 246.049 129.92 256.704C129.668 258.071 129.368 259.475 128.831 260.749L128.827 260.745Z"
    fill="#4D81F1"/>
  <path
    d="M125.89 250.504C125.879 248.308 125.842 246.108 125.798 243.912C125.775 242.812 125.742 241.715 125.705 240.619C125.668 239.486 125.423 238.086 125.731 236.989C126.705 233.5 120.223 233.608 121.886 237.493C122.283 238.423 122.161 239.923 122.227 240.919C122.305 242.015 122.372 243.115 122.435 244.212C122.557 246.408 122.635 248.604 122.679 250.804C122.768 255.2 122.453 259.604 122.668 263.993C122.761 265.886 125.309 265.786 125.538 263.993C126.101 259.545 125.916 254.986 125.894 250.504H125.89Z"
    fill="#074438"/>
  <path
    d="M131.885 229.776C130.837 225.857 129.785 221.942 128.737 218.024C128.329 216.509 125.97 217.153 126.381 218.672L129.578 230.413C129.981 231.898 132.285 231.268 131.885 229.776Z"
    fill="#074438"/>
  <path
    d="M119.8 218.398C118.84 217.101 116.644 218.383 117.622 219.672C120.285 223.183 122.496 227.001 124.133 231.094C124.685 232.472 126.937 231.887 126.392 230.472C124.733 226.161 122.552 222.112 119.8 218.398Z"
    fill="#074438"/>
  <path
    d="M166.593 274.125C157.185 287.758 143.111 297.94 127.3 302.829C125.156 303.492 122.982 304.066 120.785 304.525C118.504 304.999 115.882 305.003 113.708 305.807C111.978 306.444 112.334 308.74 114.13 308.933C116.185 309.155 118.537 308.433 120.537 307.996C122.652 307.529 124.752 306.984 126.826 306.347C130.874 305.099 134.826 303.514 138.623 301.636C146.367 297.807 153.463 292.681 159.574 286.577C162.997 283.158 166.071 279.407 168.789 275.41C169.711 274.051 167.519 272.792 166.597 274.129L166.593 274.125Z"
    fill="#074438"/>
  <path
    d="M230.668 253.823C230.642 253.793 230.612 253.767 230.586 253.741C230.39 247.238 230.024 240.734 229.779 234.234C229.738 233.186 228.112 233.182 228.146 234.234C228.338 240.108 228.431 245.986 228.642 251.86C227.349 250.682 225.998 249.556 224.712 248.397C223.579 247.375 222.449 246.345 221.32 245.315C221.338 238.897 221.016 232.486 220.338 226.104C220.235 225.119 218.679 225.104 218.779 226.104C219.372 231.986 219.664 237.89 219.661 243.801C219.357 243.523 219.053 243.245 218.749 242.967C217.961 242.249 216.786 243.412 217.572 244.145C219.538 245.975 221.512 247.797 223.468 249.634C225.412 251.464 227.286 253.449 229.361 255.127C230.268 255.856 231.501 254.701 230.664 253.823H230.668Z"
    fill="#074438"/>
  <path
    d="M168.935 243.514C167.898 244.225 166.872 244.951 165.847 245.685C166.539 239.022 166.702 232.251 167.143 225.57C167.206 224.588 165.687 224.596 165.617 225.57C165.117 232.529 164.298 239.544 164.11 246.514C164.106 246.655 164.128 246.777 164.172 246.877C162.784 247.877 161.398 248.881 160.006 249.877C159.906 249.888 159.798 249.922 159.695 249.977C158.724 250.511 157.758 251.044 156.787 251.581C157.88 246.325 158.295 240.825 158.387 235.492C158.406 234.481 156.843 234.481 156.817 235.492C156.68 241.336 155.828 246.962 154.765 252.692C154.661 252.751 154.554 252.807 154.45 252.866C153.517 253.381 154.354 254.814 155.284 254.296C155.45 254.203 155.613 254.11 155.78 254.022C155.928 253.992 156.065 253.922 156.172 253.803C157.458 253.088 158.743 252.373 160.028 251.659C160.169 251.662 160.321 251.622 160.476 251.514C163.572 249.325 166.706 247.177 169.761 244.933C170.598 244.318 169.817 242.907 168.932 243.514H168.935Z"
    fill="#074438"/>
  <path
    d="M230.509 274.771C227.612 274.534 224.905 274.393 222.142 273.382C219.368 272.371 216.842 270.778 214.735 268.715C213.949 267.949 212.749 269.145 213.527 269.923C217.738 274.123 224.364 277.704 230.512 277.004C231.931 276.841 231.972 274.886 230.512 274.767L230.509 274.771Z"
    fill="#074438"/>
  <path
    d="M234.062 126.859C230.891 133.467 234.173 142.507 242.291 145.133C251.262 148.089 260.895 143.878 267.369 137.619C276.325 128.959 282.066 110.893 264.729 108.108C249.754 105.7 240.162 114.152 234.062 126.863V126.859Z"
    fill="#3EC8AC"
    opacity="0.4"/>
</svg>
