<svg fill="none" height="250" viewBox="0 0 400 400" width="250" xmlns="http://www.w3.org/2000/svg">
  <path
    d="M82.7037 219.985C93.4445 223.689 106.778 217.022 109.37 204.059C112.322 189.726 104.119 175.641 93.3259 166.793C78.3963 154.552 49.5593 148.933 48.3593 176.122C47.3222 199.604 62.0481 212.867 82.7 219.989L82.7037 219.985Z"
    fill="#3EC8AC"
    opacity="0.4"/>
  <path
    d="M69.2875 137.781C71.1912 142.648 77.5023 145.329 82.8171 142.374C88.7171 139.133 91.206 132.063 91.0875 125.644C90.9245 116.763 84.2949 104.989 74.4134 112.674C65.8801 119.311 65.6245 128.426 69.2875 137.781Z"
    fill="#3EC8AC"
    opacity="0.4"/>
  <path
    d="M69.2875 137.781C71.1912 142.648 77.5023 145.329 82.8171 142.374C88.7171 139.133 91.206 132.063 91.0875 125.644C90.9245 116.763 84.2949 104.989 74.4134 112.674C65.8801 119.311 65.6245 128.426 69.2875 137.781Z"
    fill="#3EC8AC"
    opacity="0.4"/>
  <path
    d="M263.304 68.189H165.17C131.922 68.189 103.063 92.2371 97.1518 125.604C97.0667 126.078 96.9889 126.556 96.9111 127.037C93.2778 150.37 106.715 168.889 119.063 188.519C127.778 202.593 116.159 217.778 103.811 225.185C92.5518 231.111 79.1148 230.741 70.763 240.741C61.4592 252.052 58.1518 265.252 57.1444 279.011C55.5333 301.026 67.2333 321.878 86.7815 331.356C100.219 337.87 115.252 341.515 131.122 341.515H263.307C320.441 341.515 366.759 294.278 366.759 236.007V173.696C366.759 115.426 320.444 68.189 263.307 68.189H263.304Z"
    fill="#3EC8AC"
    opacity="0.4"/>
  <path
    d="M337.007 310.038C318.244 329.464 292.159 341.516 263.303 341.516H131.122C115.255 341.516 100.222 337.868 86.7848 331.357C67.2366 321.879 55.5366 301.027 57.1477 279.012C57.6107 272.749 58.5403 266.601 60.3033 260.697C62.1403 254.516 64.8848 248.601 68.9366 243.097C69.5181 242.301 70.1292 241.52 70.7662 240.742C79.1181 230.742 92.5551 231.112 103.814 225.186C116.163 217.779 127.781 202.594 119.066 188.52C106.718 168.89 93.2811 150.372 96.9144 127.038C96.9922 126.557 97.07 126.083 97.1551 125.605C98.2477 119.442 100.126 113.594 102.666 108.157C115.085 118.686 123.177 131.449 133.333 144.816C136.237 148.52 140.959 151.483 141.322 154.816C142.048 158.149 136.963 163.335 137.326 165.927C140.229 182.223 152.94 195.557 151.126 212.594C159.477 211.853 166.014 205.927 174.366 205.186C189.255 204.446 203.418 203.705 218.307 207.409C231.744 211.112 242.637 218.52 251.718 228.89C261.522 239.26 271.329 248.52 281.859 258.149C293.844 269.26 303.285 281.483 314.181 293.335C315.996 295.186 318.177 295.927 319.992 297.409C325.122 302.457 330.811 307.027 337.007 310.038Z"
    fill="#3EC8AC"
    opacity="0.4"/>
  <path
    d="M340.331 257.778C329.435 259.63 319.631 262.593 309.827 268.149C285.131 282.223 264.072 297.408 240.101 313.704C235.742 316.667 231.749 318.519 227.39 320.001C210.109 326.193 191.327 324.904 173.56 321.912C157.364 319.186 138.846 316.73 124.909 307.249C115.749 301.019 109.297 294.919 98.4345 292.049C84.9789 288.493 71.1419 285.952 57.2048 287.715C58.7974 306.375 69.8382 323.141 86.7863 331.352C100.223 337.867 115.257 341.512 131.127 341.512H263.312C312.446 341.512 353.579 306.575 364.134 259.73C356.753 256.952 348.786 256.297 340.335 257.775L340.331 257.778Z"
    fill="#3EC8AC"
    opacity="0.4"/>
  <path
    d="M79.6963 268.885C71.6074 269.067 64.5408 266.918 60.3667 260.696C62.2408 254.515 65.0408 248.6 69.1704 243.096C71.4556 243.141 73.7667 243.541 75.7852 244.241C81.8556 246.337 87.6408 251.104 88.6593 257.755C89.6111 263.763 84.9223 268.767 79.6963 268.885Z"
    fill="#3EC8AC"
    opacity="0.4"/>
  <path
    d="M284.628 221.762C282.421 226.221 278.906 231.562 273.954 233.229C271.647 234.006 268.513 233.973 266.75 232.044C266.302 231.551 266.024 230.988 265.895 230.41C265.284 230.284 264.843 229.458 265.369 228.814C269.061 224.262 272.995 220.181 277.643 216.592C279.465 215.181 281.743 213.71 284.047 215.047C286.695 216.588 285.706 219.588 284.624 221.766L284.628 221.762Z"
    fill="#E5EDFE"/>
  <path
    d="M245.643 262.647C242.491 267.836 232.828 287.321 215.576 283.251C209.665 281.855 194.943 267.44 191.558 262.647C185.024 253.395 195.313 234.633 195.484 223.133C194.887 219.618 195.306 216.255 198.88 215.547C201.339 215.062 204.187 216.107 206.502 216.858C209.028 217.684 211.495 218.725 213.847 219.973C218.721 222.558 223.169 226.014 226.88 230.099C233.817 237.74 251.791 252.533 245.646 262.647H245.643Z"
    fill="#4D81F1"/>
  <path
    d="M313.145 228.121C311.145 229.677 308.027 238.08 305.612 239.229C300.634 242.177 295.779 245.036 290.108 246.177C288.116 246.577 282.197 247.125 281.857 248.977C280.845 254.377 279.59 259.729 278.086 265.014C275.445 274.299 272.245 284.417 264.379 290.651C260.701 293.569 256.338 295.354 251.608 295.44C246.594 295.532 241.701 293.866 237.245 291.684C228.905 287.606 220.531 281.04 218.92 271.332C218.194 266.984 219.027 262.429 221.694 258.854C222.371 257.947 224.097 256.292 225.894 254.654C229.286 251.569 234.145 250.695 238.394 252.414C241.89 253.825 246.331 257.503 248.679 259.777C249.338 258.414 255.508 244.643 256.975 241.125C259.42 235.262 259.112 231.951 265.02 229.08C270.501 226.417 276.534 229.103 282.26 228.217C285.231 227.758 288.108 226.825 290.923 225.788C295.579 224.062 299.938 221.666 304.568 219.888C308.101 218.525 313.612 217.069 316.753 220.106C320.668 223.892 316.212 225.747 313.145 228.121Z"
    fill="#F2F4F7"/>
  <path
    d="M316.749 220.105C313.612 217.068 308.101 218.527 304.564 219.887C300.512 221.442 296.671 223.472 292.653 225.109C294.945 227.427 299.056 233.698 299.056 233.698C299.056 233.698 305.541 226.19 310.371 224.983C311.875 224.731 313.793 225.938 313.882 227.568C316.853 225.442 320.353 223.59 316.745 220.105H316.749Z"
    fill="#E5EDFE"/>
  <path
    d="M228.664 265.121C225.449 269.221 225.023 275.165 225.052 280.173C225.06 281.784 223.138 282.413 222.019 281.428C215.449 275.647 216.052 265.776 220.804 259.084C223.212 255.691 226.545 252.539 230.538 251.15C234.441 249.787 238.415 251.076 241.326 253.913C241.434 254.013 241.504 254.121 241.545 254.232C242.186 254.613 242.76 255.128 243.252 255.858C243.93 256.861 231.915 260.965 228.656 265.121H228.664Z"
    fill="#E5EDFE"/>
  <path
    d="M225.704 241.795C225.367 240.632 223.449 240.803 223.527 242.092C223.597 243.243 223.956 244.347 224.153 245.484C224.382 246.821 224.523 248.169 224.608 249.521C224.675 250.58 226.301 250.603 226.275 249.521C226.216 247.066 226.397 244.166 225.708 241.795H225.704Z"
    fill="#074438"/>
  <path
    d="M233.505 243.737C232.85 245 232.172 246.248 231.483 247.493C231.009 248.348 232.25 249.056 232.783 248.252C233.572 247.063 234.368 245.885 235.19 244.722C235.913 243.7 234.09 242.611 233.505 243.737Z"
    fill="#074438"/>
  <path
    d="M148.916 252.788C147.583 259.173 145.483 265.888 142.209 271.562C139.02 277.08 133.975 280.617 128.031 282.699C122.742 284.551 116.786 285.517 111.253 284.247C105.568 282.939 101.383 278.843 99.5865 273.339C97.5606 267.151 98.7606 260.228 100.457 254.102C102.172 247.932 104.92 242.025 108.849 236.951C112.42 232.343 116.949 228.432 122.209 225.873C126.946 223.565 135.116 216.806 140.164 218.502C144.672 219.262 146.079 227.558 148.116 231.795C151.19 238.195 150.324 246.065 148.924 252.788H148.916Z"
    fill="#4D81F1"/>
  <path
    d="M128.388 229.627C126.18 232.798 123.699 235.768 120.988 238.52C118.465 241.083 115.565 243.853 111.862 244.423C108.936 244.872 105.528 243.723 104.136 240.953C103.395 239.486 103.373 237.972 103.765 236.52C101.621 237.66 99.321 238.516 96.921 239.038C93.2321 239.846 89.4136 239.912 85.7062 239.194C82.5655 238.583 78.021 237.309 77.0877 233.757C76.0506 229.838 80.2914 227.838 83.121 226.46C84.2432 225.912 85.3766 225.379 86.5099 224.86C83.6914 225.038 80.8729 224.92 78.0729 224.249C72.9951 223.031 68.3803 219.875 66.3358 214.938C62.484 205.631 70.8692 197.857 79.6173 196.816C85.5469 196.112 91.4025 197.812 97.1025 199.231C102.477 200.572 108.728 202.042 114.121 200.001C116.588 199.068 118.551 197.16 118.677 194.401C118.799 191.753 117.591 189.29 116.106 187.183C113.225 183.09 109.188 179.579 108.695 174.286C108.291 169.927 111.165 166.401 115.336 165.386C119.951 164.268 124.41 166.568 127.858 169.472C128.421 169.946 127.988 170.653 127.414 170.76C131.888 175.512 135.04 181.42 136.799 187.712C140.854 202.212 136.847 217.49 128.391 229.635L128.388 229.627Z"
    fill="#074438"/>
  <path
    d="M247.771 341.515H147.178L132.071 247.311C128.596 225.633 145.337 205.993 167.289 205.993H172.641C187.245 205.993 200.83 213.474 208.637 225.819C214.974 235.841 216.915 248.022 214.004 259.519L206.208 290.308L247.767 341.515H247.771Z"
    fill="#4D81F1"/>
  <path
    d="M187.657 234.561C184.957 233.324 181.198 232.457 177.983 232.757C177.59 230.55 175.435 228.85 172.753 229.113C169.909 229.391 167.42 231.639 167.494 234.276C167.505 234.687 167.583 235.079 167.712 235.442C167.786 235.898 167.946 236.331 168.179 236.724C165.838 238.146 163.627 239.828 161.968 241.857C159.972 244.298 158.327 248.154 161.475 250.454C164.457 252.628 168.549 251.124 170.694 248.709C171.861 247.394 172.712 245.705 173.227 243.935C174.027 250.542 174.727 257.191 175.079 263.805C175.194 265.976 179.046 265.928 178.809 263.805L178.69 262.739C178.668 262.535 178.601 262.346 178.509 262.179C176.975 254.509 175.879 246.713 174.857 238.976C177.331 242.702 179.294 246.713 180.961 250.776C181.872 252.998 182.661 255.261 183.32 257.554C183.627 258.624 183.909 259.702 184.164 260.787C184.449 261.998 184.527 263.294 185.164 264.402C186.046 265.935 188.32 265.039 188.475 263.594C188.605 262.387 188.038 261.072 187.698 259.909C187.338 258.687 186.946 257.472 186.512 256.268C185.716 254.042 184.794 251.857 183.772 249.709C182.709 247.479 181.479 245.339 180.135 243.254C180.598 243.509 181.083 243.742 181.598 243.939C184.653 245.109 188.575 244.939 190.62 242.291C192.864 239.383 190.82 236.002 187.664 234.557L187.657 234.561ZM169.935 238.428C169.401 240.687 169.657 243.02 168.538 245.176C167.916 246.379 165.101 249.572 163.431 247.624C162.116 246.094 164.857 242.82 165.82 241.679C166.916 240.379 168.198 239.239 169.468 238.087C169.62 238.187 169.783 238.279 169.949 238.361C169.942 238.383 169.938 238.402 169.931 238.424L169.935 238.428ZM187.246 241.02C185.535 242.617 182.542 242.028 180.661 241.083C178.842 240.172 177.442 238.787 176.131 237.357C176.475 237.054 176.786 236.72 177.049 236.357C178.246 236.442 179.449 236.339 180.649 236.439C181.901 236.546 183.135 236.805 184.335 237.142C186.035 237.624 189.283 239.113 187.249 241.013L187.246 241.02Z"
    fill="#074438"/>
  <path
    d="M173.198 224.409C177.131 224.887 180.69 229.376 184.846 226.998C189.075 224.576 187.846 219.053 185.679 215.69C180.501 207.657 170.183 204.716 161.609 208.309C159.046 207.116 156.02 207.102 153.335 208.176C149.516 209.709 146.998 213.213 145.735 217.024C144.098 221.972 144.701 227.287 145.468 232.339C146.046 236.161 147.638 241.657 152.627 241.087C157.131 240.572 159.509 235.146 161.749 231.868C164.294 228.139 168.168 223.798 173.198 224.409Z"
    fill="white"/>
  <path
    d="M174.763 218.411C172.271 223.222 165 222.567 154.452 218.163C151.741 217.03 150.056 214.285 150.3 211.355L151.737 194.007H173.678L175.411 214.915C175.511 216.118 175.319 217.341 174.763 218.411Z"
    fill="#D6E3F7"/>
  <path d="M152.01 197.569L151.659 201.814C158.788 206.729 166.692 210.255 175.151 212.036L173.951 197.569H152.01Z"
        fill="#E5EDFE"/>
  <path
    d="M215.417 237.651C215.021 236.143 212.691 236.78 213.08 238.295C214.569 244.084 215.106 249.973 214.565 255.928C214.288 258.995 213.706 262.01 212.836 264.965C212.025 267.717 210.688 270.236 209.78 272.94C209.128 274.877 212.114 276.128 213.077 274.328C215.869 269.117 216.788 262.295 217.217 256.458C217.684 250.143 217.021 243.766 215.414 237.647L215.417 237.651Z"
    fill="#074438"/>
  <path
    d="M167.983 203.436C182.957 200.069 192.372 185.203 189.005 170.229C189.005 170.229 185.035 152.551 184.801 151.521C183.572 146.047 181.094 141.173 177.731 137.14C160.138 134.377 139.905 144.392 133.787 161.377C132.276 165.055 137.335 168.255 138.827 171.925C139.646 174.077 139.12 176.199 137.572 178.214C135.09 180.818 133.079 183.577 131.368 186.525L132.705 187.695L143.572 197.221C150.25 203.073 159.32 205.381 167.983 203.436Z"
    fill="#F2F4F7"/>
  <path
    d="M182.899 145.596C181.58 142.489 179.828 139.652 177.736 137.141C161.251 134.548 142.443 143.182 135.11 158.256C139.784 160.996 144.614 163.485 149.865 163.107C162.462 162.493 175.839 156.185 182.899 145.6V145.596Z"
    fill="#E5EDFE"/>
  <path
    d="M180.054 170.226C178.38 169.589 175.825 171.2 174.569 169.844C173.832 169.048 172.665 170.23 173.384 171.03C173.947 171.659 174.684 171.989 175.525 172.063C176.606 172.156 178.651 171.241 179.514 171.948C180.799 173 178.258 174.648 177.402 175.13C176.228 175.796 174.995 176.096 173.677 176.326C172.665 176.5 172.888 178.211 173.921 178.13C176.658 177.911 181.091 176.111 181.71 173.041C181.962 171.793 181.21 170.667 180.051 170.23L180.054 170.226Z"
    fill="#074438"/>
  <path
    d="M192.18 131.481C186.051 126.244 176.732 126.637 169.558 130.007C162.18 125.393 153.058 123.567 143.902 125.626C125.454 129.77 113.862 148.085 118.006 166.53C119.273 172.17 121.862 177.167 125.384 181.278L125.399 181.293L143.577 197.222C143.577 197.222 135.095 180.815 137.577 178.215C139.128 176.2 150.391 168.867 149.577 166.711C149.062 165.448 148.436 163.463 147.862 161.356C148.984 161.141 150.088 160.811 151.147 160.37C153.591 159.352 155.721 157.815 157.636 156.026C157.695 156.415 157.828 156.815 158.054 157.226C159.528 159.907 162.425 158.593 164.373 157.304C168.751 154.404 172.373 149.63 173.24 144.367C173.621 142.033 173.458 139.533 172.221 137.481C173.262 137.393 181.121 138.278 184.399 154.43C184.562 155.226 185.128 155.789 185.94 155.604C191.18 154.415 193.71 149.318 195.077 144.57C196.421 139.885 196.11 134.837 192.184 131.485L192.18 131.481Z"
    fill="#074438"/>
  <path d="M125.4 181.292L125.382 181.277C125.382 181.277 125.389 181.288 125.396 181.292H125.4Z" fill="#F2F4F7"/>
  <path
    d="M138.393 183.8C143.961 183.8 148.474 179.287 148.474 173.719C148.474 168.151 143.961 163.637 138.393 163.637C132.825 163.637 128.311 168.151 128.311 173.719C128.311 179.287 132.825 183.8 138.393 183.8Z"
    fill="#F2F4F7"/>
  <path
    d="M139.529 178.792C136.733 179.421 133.944 177.655 133.318 174.858C132.689 172.062 134.455 169.273 137.252 168.647C140.048 168.018 142.837 169.784 143.463 172.581C144.089 175.377 142.326 178.166 139.529 178.792Z"
    fill="#E5EDFE"/>
  <path
    d="M160.252 163.61C156.585 164.433 157.859 170.133 161.533 169.307C165.207 168.481 163.926 162.784 160.252 163.61Z"
    fill="#074438"/>
  <path
    d="M166.457 198.562C167.238 198.492 168.023 198.407 168.809 198.359C169.701 198.303 170.527 198.47 171.379 198.088C173.294 197.229 172.931 194.392 170.857 194.044C169.935 193.888 169.179 194.262 168.301 194.433C167.531 194.585 166.749 194.703 165.975 194.833C163.586 195.233 164.042 198.781 166.457 198.562Z"
    fill="#E5EDFE"/>
  <path
    d="M181.295 158.956C179.24 159.882 177.302 161.233 175.788 162.911C174.865 163.93 176.369 165.445 177.302 164.426C178.758 162.83 180.351 161.608 182.321 160.704C183.506 160.163 182.477 158.426 181.299 158.956H181.295Z"
    fill="#074438"/>
  <path
    d="M175.341 186.407C172.526 191.207 162.818 191.833 160.952 185.807C160.503 184.362 160.818 182.725 162.581 182.636C164.1 182.562 165.848 183.262 167.333 183.518C170.666 184.092 174.052 184.325 177.429 184.384C178.478 184.403 178.329 182.773 177.285 182.755C174.626 182.71 172.011 182.414 169.403 181.914C167.181 181.488 164.937 180.547 162.685 180.381C158.566 180.077 157.537 184.588 159.044 187.662C160.815 191.27 164.833 192.862 168.681 192.67C172.17 192.496 176.689 190.944 177.518 187.118C177.811 185.777 175.966 185.333 175.341 186.407Z"
    fill="#074438"/>
  <path
    d="M117.965 163.925C117.957 163.769 117.905 163.606 117.787 163.443C117.55 163.117 117.265 162.847 116.953 162.636C116.646 162.332 116.283 162.191 115.909 162.173C115.168 162.002 114.365 162.113 113.624 162.573C111.92 163.632 111.713 165.851 111.979 167.639C112.572 171.602 113.998 175.91 116.742 178.91C118.102 180.395 120.272 181.984 122.239 180.562C123.146 179.902 123.465 178.984 123.509 177.995C121.065 174.132 119.739 169.602 118.835 165.169C118.557 164.747 118.268 164.332 117.968 163.925H117.965Z"
    fill="#50C62C"/>
  <path
    d="M112.063 273.251C109.211 275.71 106.922 278.914 105.308 282.477C105.43 279.403 105.648 276.343 106.622 273.414C108.304 268.347 112.615 265.395 117.896 265.169C119.174 265.114 120.526 265.199 121.767 265.58C122.13 266.103 122.711 266.447 123.382 266.31C123.726 266.525 124.048 266.777 124.345 267.069C125.852 268.554 126.445 270.754 126.578 272.814C126.637 273.721 126.615 274.621 126.548 275.521C122.4 271.973 116.504 269.425 112.056 273.258L112.063 273.251Z"
    fill="#F2F4F7"/>
  <path
    d="M199.007 282.776C195.33 284.325 194.896 284.832 191.093 286.047C194.5 288.947 195.2 300.332 195.389 301.984C195.674 304.425 194.289 306.71 192.396 308.154C189.807 310.125 186.389 310.499 183.059 310.236C179.904 311.28 176.622 312.047 173.322 311.85C170.4 311.676 157.785 314.336 153.433 315.969C147.459 318.21 141.041 319.247 134.678 319.436C123.093 319.784 109.522 316.395 104.518 304.699C102.504 299.995 102.596 294.806 102.526 289.788C102.448 284.147 102.467 278.413 104.078 272.954C106.311 265.387 112.563 261.632 120.304 261.587C123.344 261.569 126.822 262.306 129.293 264.184C131.763 266.062 132.544 269.684 132.693 272.791C132.867 276.387 132.789 280.039 132.47 283.625C132.433 284.028 132.378 284.432 132.3 284.839C133.526 287.228 136.022 288.417 138.852 289.58C143.204 291.369 158.763 286.247 159.207 283.917C160.374 277.78 162.593 271.769 164.155 265.728C164.674 263.717 165.83 261.002 168.307 261.025C171.2 261.05 172.159 264.676 172.641 266.917C173.148 269.273 173.252 271.687 172.941 274.065C177.267 271.958 181.611 269.902 186.033 267.999C190.633 266.017 191.967 265.069 196.67 263.35C198.522 262.676 200.752 261.554 202.789 262.05C204.47 262.458 205.511 263.965 205.459 265.673C205.4 267.576 204.048 268.973 202.559 269.969C200.593 271.28 198.452 272.384 196.374 273.513C195.707 273.88 195.037 274.236 194.363 274.591C195.496 274.321 196.626 274.047 197.756 273.776C200.507 273.113 206.03 271.421 207.204 275.425C208.467 279.721 201.781 281.613 199.007 282.788V282.776Z"
    fill="#F2F4F7"/>
  <path
    d="M225.573 124.644C224.888 123.385 224.14 122.152 223.325 120.97C222.543 119.841 221.743 118.385 220.514 117.715C218.958 116.867 217.465 118.533 218.191 120.037C218.736 121.167 219.94 122 220.747 122.959C221.591 123.959 222.31 125.037 222.98 126.163C223.969 127.826 226.495 126.348 225.573 124.648V124.644Z"
    fill="#50C62C"/>
  <path
    d="M218.473 129.561C215.314 127.313 212.295 124.739 209.043 122.639C207.143 121.413 205.491 124.365 207.291 125.635C210.436 127.853 213.936 129.683 217.188 131.761C218.588 132.657 219.788 130.498 218.473 129.561Z"
    fill="#50C62C"/>
  <path
    d="M259.906 224.046C288.866 224.046 312.343 200.569 312.343 171.609C312.343 142.649 288.866 119.172 259.906 119.172C230.945 119.172 207.469 142.649 207.469 171.609C207.469 200.569 230.945 224.046 259.906 224.046Z"
    fill="#50C62C"/>
  <path
    d="M259.905 215.175C283.966 215.175 303.472 195.669 303.472 171.608C303.472 147.547 283.966 128.042 259.905 128.042C235.844 128.042 216.338 147.547 216.338 171.608C216.338 195.669 235.844 215.175 259.905 215.175Z"
    fill="#074438"/>
  <path
    d="M259.907 209.137C280.634 209.137 297.437 192.334 297.437 171.607C297.437 150.88 280.634 134.078 259.907 134.078C239.18 134.078 222.378 150.88 222.378 171.607C222.378 192.334 239.18 209.137 259.907 209.137Z"
    fill="#F2F4F7"/>
  <path
    d="M253.239 134.679C247.424 135.727 242.069 138.113 237.51 141.513C239.465 142.761 241.328 144.25 243.376 145.613C262.099 157.401 278.873 169.72 296.006 181.89C296.939 178.62 297.439 175.172 297.439 171.609C297.439 169.979 297.336 168.372 297.132 166.798C282.217 156.842 267.791 146.409 253.243 134.679H253.239Z"
    fill="#E5EDFE"/>
  <path
    d="M240.991 187.044C240.384 186.233 240.551 185.089 241.362 184.481L257.699 172.255C258.162 171.911 258.432 171.367 258.432 170.789V141.274C258.432 140.263 259.251 139.444 260.262 139.444C261.273 139.444 262.091 140.263 262.091 141.274V172.622C262.091 173.2 261.821 173.741 261.358 174.089L243.554 187.411C242.743 188.018 241.599 187.852 240.991 187.041V187.044Z"
    fill="#4D81F1"/>
  <path
    d="M259.908 179.174C264.087 179.174 267.474 175.787 267.474 171.608C267.474 167.429 264.087 164.041 259.908 164.041C255.729 164.041 252.341 167.429 252.341 171.608C252.341 175.787 255.729 179.174 259.908 179.174Z"
    fill="#074438"/>
  <path
    d="M321.953 174.653C321.931 173.034 319.435 173.031 319.438 174.653C319.449 180.408 318.449 185.979 316.472 191.382C315.52 193.982 314.342 196.497 312.972 198.901C312.253 200.164 311.479 201.397 310.653 202.594C309.853 203.753 308.76 204.827 308.346 206.186C307.92 207.586 309.59 208.882 310.838 208.105C312.098 207.319 312.868 205.875 313.649 204.642C314.427 203.416 315.153 202.156 315.827 200.868C317.235 198.168 318.416 195.342 319.346 192.442C321.172 186.742 322.038 180.634 321.953 174.653Z"
    fill="#50C62C"/>
  <path
    d="M320.483 162.085C320.412 161.463 319.997 160.922 319.32 160.922C318.72 160.922 318.12 161.456 318.157 162.085C318.197 162.778 318.242 163.471 318.283 164.163C318.323 164.859 318.305 165.589 318.527 166.252C318.857 167.23 320.579 167.478 320.768 166.252C320.975 164.911 320.627 163.43 320.479 162.085H320.483Z"
    fill="#50C62C"/>
  <path
    d="M212.758 136.259C211.873 135.978 210.977 135.715 210.11 135.374C209.217 135.026 208.447 134.467 207.558 134.145C205.732 133.485 204.84 136.593 206.751 137.071C207.662 137.296 208.602 137.252 209.532 137.467C210.436 137.678 211.328 137.948 212.221 138.208C213.477 138.574 213.999 136.645 212.758 136.252V136.259Z"
    fill="#50C62C"/>
  <path
    d="M117.944 256.084C117.633 255.177 117.318 254.266 117.007 253.358C116.699 252.462 116.477 251.558 115.847 250.832C115.133 250.007 113.866 250.714 113.818 251.673C113.773 252.566 114.192 253.41 114.484 254.24C114.781 255.092 115.081 255.94 115.377 256.792C115.94 258.399 118.507 257.714 117.944 256.084Z"
    fill="#074438"/>
  <path
    d="M127.564 251.051C127.064 251.859 126.86 252.844 126.575 253.744C126.275 254.677 125.979 255.614 125.679 256.547C125.168 258.151 127.69 258.84 128.197 257.24C128.753 255.484 129.694 253.499 129.808 251.655C129.886 250.41 128.16 250.085 127.564 251.047V251.051Z"
    fill="#074438"/>
  <path
    d="M146.016 251.424C145.623 255.983 144.457 260.457 142.46 264.583C141.52 266.531 140.423 268.409 139.216 270.201C138.586 271.135 137.923 272.042 137.216 272.92C136.534 273.764 135.883 274.39 135.86 275.535C135.842 276.331 136.608 276.79 137.323 276.649C139.297 276.261 140.827 272.99 141.768 271.405C142.927 269.449 143.894 267.383 144.72 265.264C146.445 260.835 147.494 256.164 147.857 251.424C147.945 250.242 146.123 250.257 146.02 251.424H146.016Z"
    fill="#074438"/>
  <path
    d="M134.107 265.139C133.955 266.802 133.852 268.469 133.726 270.132C133.622 271.51 132.315 272.084 131.285 271.847C131.096 271.969 130.852 272.013 130.559 271.91C120.559 268.443 110.548 276.361 103.689 282.713C102.529 283.787 101.026 283.195 100.47 281.865C97.5146 274.798 101.907 266.835 108.237 263.428C115.744 259.387 125.037 260.458 132.752 263.354C133.47 263.624 134.189 264.28 134.111 265.139H134.107Z"
    fill="#E5EDFE"/>
</svg>
